<?xml version="1.0" encoding="utf-8"?>
<!-- Generator: Adobe Illustrator 24.3.0, SVG Export Plug-In . SVG Version: 6.00 Build 0)  -->
<svg version="1.1" id="Capa_1" xmlns="http://www.w3.org/2000/svg" xmlns:xlink="http://www.w3.org/1999/xlink" x="0px" y="0px"
	 viewBox="0 0 228.7 39.1" style="enable-background:new 0 0 228.7 39.1;" xml:space="preserve">
<style type="text/css">
	.st0{display:none;fill:#FED136;}
	.st1{fill:none;}
	.st2{fill:#F4C02F;}
	.st3{font-family:'BrushScriptMT';}
	.st4{font-size:40.6711px;}
</style>
<path class="st0" d="M23.1,2.3c0.1,0.4,0.1,0.7,0.2,0.8c0,0.2,0.1,0.4,0,0.6c0,0.8-0.2,1.5-0.5,2.2C22.5,6.5,22,7,21.4,7.3
	c-0.5-0.6-1.1-1.2-1.7-1.6c-0.7-0.5-1.5-0.8-2.2-1.1C16.7,4.3,15.8,4.1,15,4s-1.7-0.2-2.6-0.2c-0.8,0-1.6,0.1-2.3,0.2
	c-0.8,0-1.4,0.2-2,0.4C7.6,4.6,7.2,4.9,6.8,5.2C6.5,5.5,6.3,6,6.3,6.4C6.4,7,6.8,7.6,7.3,8c0.6,0.6,1.3,1.1,2.1,1.6
	c0.8,0.5,1.7,1,2.7,1.5s2,1,3,1.4c1.2,0.6,2.2,1.1,3.1,1.6c0.8,0.4,1.5,1,2.2,1.6c0.6,0.6,1,1.3,1.3,2c0.3,0.8,0.4,1.7,0.3,2.6
	c0,1.2-0.2,2.3-0.6,3.4c-0.4,1-1,2-1.8,2.7c-0.8,0.8-1.7,1.4-2.8,1.8c-1.2,0.4-2.4,0.7-3.6,0.7c-1.4,0-2.8-0.2-4.2-0.6
	c-1.5-0.4-2.9-0.9-4.3-1.7c-1.2-0.6-2.4-1.4-3.3-2.4C0.5,23.4,0,22.4,0,21.3c0-0.6,0.2-1.2,0.4-1.8c0.3-0.9,0.8-1.6,1.5-2.3
	C2,18.1,2.4,19,3,19.7c0.8,1.1,1.9,2,3.1,2.7c1.3,0.7,2.6,1.3,4,1.7c1.3,0.3,2.6,0.5,3.9,0.5c1.1,0,2.2-0.1,3.2-0.5
	c0.7-0.3,1.4-0.7,1.9-1.2c0.4-0.4,0.8-0.9,1-1.4c0.2-0.4,0.3-0.7,0.3-1.1c0-0.5-0.3-1-0.6-1.4c-0.5-0.5-1.1-0.9-1.7-1.3
	c-0.7-0.4-1.5-0.8-2.4-1.3s-1.9-0.9-2.9-1.3c-1.5-0.7-2.8-1.3-3.8-1.9c-0.9-0.5-1.8-1.1-2.7-1.8c-0.5-0.4-1.1-1-1.4-1.8
	C4.5,8.9,4.4,8.1,4.4,7.4c0-1.3,0.4-2.7,1.2-3.8c0.9-1.2,2.1-2.2,3.5-2.7c0.8-0.3,1.6-0.6,2.4-0.7C12.4,0.1,13.2,0,14.1,0
	c1.5,0,3.1,0.2,4.6,0.6C20.1,1.1,21.6,1.6,23.1,2.3z"/>
<path class="st0" d="M25.9,12.6c-0.2-0.3-0.3-0.6-0.3-0.9c-0.1-0.4-0.1-0.8-0.1-1.2c0.6,0.1,1.2,0.1,1.8,0.1h1.6
	c0.4-0.7,0.7-1.4,1.1-2.1s0.8-1.3,1.2-1.9c0.3-0.5,0.7-1,1.1-1.5c0.2-0.3,0.5-0.5,0.8-0.8c0.3,0,0.6,0,0.9,0.1
	c0.4,0.1,0.7,0.2,1.1,0.3s0.7,0.3,1,0.4c0.2,0.1,0.5,0.2,0.6,0.4C36,6.4,35.4,7.2,34.9,8s-1.1,1.6-1.7,2.6h1.4c0.5,0,1,0,1.5-0.1
	c0.1,0.1,0.2,0.3,0.3,0.4c0.1,0.2,0.1,0.4,0.1,0.5c-1.4,0.5-2.8,0.7-4.2,0.7c-0.6,1.1-1.1,2.3-1.6,3.4S29.9,18,29.5,19
	c-0.3,1-0.5,1.9-0.7,2.9c-0.2,0.8-0.3,1.7-0.3,2.5c0,1,0.4,1.6,1.2,1.7c0.7-0.1,1.4-0.3,2-0.5c0.6-0.2,1.2-0.6,1.7-1
	c0.1,0.2,0.2,0.3,0.2,0.5c-0.2,0.3-0.4,0.5-0.7,0.7c-0.4,0.3-0.7,0.6-1.1,0.8c-0.4,0.3-0.8,0.5-1.2,0.7c-0.3,0.1-0.6,0.3-0.9,0.3
	c-0.6,0-1.2-0.1-1.8-0.3c-0.6-0.2-1.1-0.5-1.6-0.9c-0.5-0.3-0.9-0.7-1.2-1.2c-0.3-0.4-0.4-0.8-0.5-1.3c0-0.7,0.1-1.4,0.2-2.1
	c0.1-0.9,0.4-1.8,0.6-2.8s0.6-2.1,1-3.2s0.8-2.2,1.2-3.3L25.9,12.6z"/>
<path class="st0" d="M48.5,11.8c0.3,0,0.6,0,0.8,0.1c0.3,0.1,0.6,0.2,0.9,0.3c0.2,0.1,0.4,0.2,0.7,0.4c0.2,0.1,0.3,0.3,0.3,0.4
	c-0.5,1-0.9,2-1.3,3s-0.7,2-1,2.9c-0.3,0.8-0.5,1.7-0.7,2.6c-0.1,0.7-0.2,1.4-0.2,2.1c0,0.6,0.1,1.1,0.2,1.6
	c0.1,0.4,0.4,0.7,0.7,0.9c-0.3,0.2-0.7,0.4-1.1,0.5c-0.4,0.1-0.8,0.2-1.2,0.2c-1.3,0-1.9-0.9-1.9-2.6c0.1-1.9,0.6-3.8,1.4-5.5
	c-0.5,1-1,2-1.6,3c-0.6,0.9-1.2,1.7-1.9,2.5c-0.6,0.7-1.2,1.3-2,1.9c-0.5,0.4-1.1,0.7-1.8,0.8c-0.9,0-1.7-0.5-2.1-1.2
	c-0.6-0.9-0.9-1.9-0.8-3c0-1.4,0.3-2.9,0.8-4.2c0.6-1.4,1.3-2.8,2.2-4.1c0.8-1.2,1.8-2.2,2.9-3.1c0.8-0.8,1.9-1.2,3-1.3
	c0.3,0.1,0.6,0.2,0.8,0.4c0.3,0.2,0.6,0.5,0.8,0.7c0.3,0.3,0.5,0.6,0.7,0.9c0.2,0.2,0.3,0.5,0.3,0.8c-1.1,0.2-2.1,0.6-2.9,1.3
	c-1,0.8-2,1.8-2.7,2.8c-0.8,1.1-1.5,2.3-2,3.5c-0.5,1.1-0.8,2.3-0.8,3.5c0,0.4,0.2,0.7,0.5,0.8c0.9-0.3,1.8-0.9,2.4-1.8
	c1.2-1.5,2.3-3.1,3.3-4.8l0.8-1.4c0.3-0.5,0.6-1.1,0.9-1.6l0.9-1.7C48,12.9,48.2,12.4,48.5,11.8z"/>
<path class="st0" d="M52.1,25.4c0.1-0.7,0.3-1.6,0.6-2.7s0.6-2.3,1-3.6s0.8-2.5,1.3-3.8s0.9-2.4,1.3-3.4c0.2-0.6,0.5-1.2,0.8-1.7
	c0.2-0.4,0.5-0.7,0.8-1c0.3,0.1,0.7,0.1,1,0.2c0.3,0.1,0.7,0.3,1,0.4c0.3,0.2,0.6,0.3,0.9,0.5c0.2,0.1,0.4,0.3,0.6,0.5
	c-0.7,0.8-1.2,1.7-1.7,2.6c-0.5,1.2-1,2.4-1.4,3.6c1.3-1.1,2.4-2.2,3.4-3.3s1.9-2.2,2.7-3.5c0.2-0.1,0.5-0.2,0.7-0.2
	c0.3,0,0.7,0,1,0.2c0.3,0.1,0.5,0.2,0.6,0.4c-0.4,1.1-0.6,2.2-0.6,3.4c-0.1,0.8,0.1,1.6,0.5,2.3c-0.1,0.3-0.3,0.6-0.5,0.8
	c-0.3,0.4-0.6,0.8-1,1.1c-0.7-0.3-1.2-0.8-1.7-1.3c-0.5-0.6-0.9-1.2-1.1-1.9c-1,0.7-1.9,1.5-2.8,2.3c-0.8,0.7-1.4,1.6-2,2.5
	c-0.6,1-1.1,2-1.4,3.1c-0.4,1.2-0.8,2.6-1.1,4.2c-0.3,0-0.5-0.1-0.8-0.2s-0.6-0.3-0.9-0.5c-0.3-0.2-0.5-0.4-0.8-0.6
	C52.3,25.9,52.2,25.6,52.1,25.4z"/>
<path class="st0" d="M69.3,12.6C69.1,12.3,69,12,69,11.7c-0.1-0.4-0.1-0.8-0.1-1.2c0.6,0.1,1.2,0.1,1.8,0.1h1.6
	c0.3-0.7,0.7-1.4,1.2-2.1s0.8-1.3,1.2-1.9c0.3-0.5,0.7-1,1.1-1.5c0.2-0.3,0.5-0.6,0.8-0.8c0.3,0,0.6,0,0.9,0.1
	c0.4,0.1,0.7,0.2,1.1,0.3s0.7,0.3,1,0.4c0.2,0.1,0.5,0.2,0.6,0.4c-0.7,0.9-1.3,1.7-1.8,2.5s-1.1,1.6-1.7,2.6H78c0.5,0,1,0,1.5-0.1
	c0.1,0.1,0.2,0.3,0.3,0.4c0.1,0.2,0.1,0.4,0.1,0.5c-1.4,0.5-2.8,0.7-4.2,0.7c-0.6,1.1-1.1,2.3-1.6,3.4S73.3,18,73,19
	s-0.6,1.9-0.8,2.9c-0.2,0.8-0.2,1.7-0.3,2.5c0,1,0.4,1.6,1.2,1.7c0.7-0.1,1.4-0.3,2-0.5s1.2-0.6,1.7-1c0.1,0.2,0.2,0.3,0.2,0.5
	c-0.2,0.3-0.5,0.5-0.7,0.7c-0.4,0.3-0.7,0.6-1.1,0.8c-0.4,0.3-0.8,0.5-1.2,0.7c-0.3,0.1-0.6,0.2-0.8,0.3c-0.6,0-1.2-0.1-1.8-0.3
	c-0.6-0.2-1.1-0.5-1.6-0.9c-0.5-0.3-0.9-0.7-1.2-1.2c-0.3-0.4-0.5-0.8-0.5-1.3c0-0.7,0.1-1.4,0.2-2.1c0.2-0.9,0.4-1.8,0.7-2.8
	s0.6-2.1,1-3.2s0.8-2.2,1.2-3.3L69.3,12.6z"/>
<path class="st0" d="M112.6,6.6c0,1.4-0.4,2.8-1.2,3.9c-0.9,1.2-2,2.2-3.3,2.9c0.9,0.6,1.6,1.3,2.1,2.2c0.5,0.9,0.8,1.9,0.8,2.9
	c0,1.3-0.4,2.6-1.2,3.8c-0.8,1.3-1.9,2.4-3.1,3.3c-1.3,1-2.8,1.8-4.3,2.3c-1.6,0.6-3.3,0.9-5,0.9s-3.3-0.3-4.8-1
	c-1.3-0.7-2.5-1.7-3.2-3c0.2-0.7,0.5-1.6,0.9-2.6s0.8-2.2,1.3-3.3s1-2.3,1.4-3.5s0.9-2.2,1.4-3.1c0.9-2,1.7-3.7,2.4-5
	c0.6-1.1,1.3-2.2,2-3.1c-1.2,0.4-2.4,0.8-3.5,1.4C94.5,6,93.7,6.5,93,7.1c-0.2-0.2-0.5-0.4-0.7-0.6c-0.2-0.3-0.4-0.6-0.6-0.9
	s-0.4-0.7-0.5-1C91.1,4,91,3.7,91,3.4c0.7-0.5,1.6-0.9,2.4-1.2c1-0.4,2.1-0.7,3.2-1c1.2-0.3,2.4-0.5,3.6-0.7s2.3-0.2,3.5-0.2
	c2.3-0.1,4.7,0.5,6.7,1.7C111.8,3,112.7,4.8,112.6,6.6z M99.1,15.1c-0.5-0.2-0.9-0.6-1.2-1c-0.6,1.2-1.1,2.4-1.5,3.5
	s-0.9,2.2-1.3,3.2s-0.7,1.9-0.9,2.6c-0.2,0.5-0.3,1.1-0.4,1.6c0.4,0.2,0.8,0.3,1.2,0.4c0.6,0.1,1.1,0.2,1.7,0.2
	c1.6,0,3.1-0.2,4.6-0.7c1.4-0.4,2.7-1.1,3.9-1.9c1-0.7,1.9-1.6,2.7-2.6c0.6-0.9,1-2,1-3.1c0.1-1.4-0.7-2.8-2-3.4
	c-2,0.8-4.1,1.2-6.2,1.1h-0.8C99.6,15.1,99.3,15.1,99.1,15.1z M106,2.8c-0.5,0-1,0-1.6,0.1s-1.1,0.1-1.8,0.3
	c0.1,0.1,0.2,0.2,0.2,0.3s0.1,0.2,0.2,0.3c-0.3,0.4-0.5,0.8-0.8,1.2c-0.3,0.5-0.7,1.2-1,1.9s-0.8,1.5-1.2,2.4s-0.8,1.8-1.2,2.7
	c0.5-0.1,1-0.2,1.5-0.2c0.6-0.1,1.1-0.1,1.7-0.1c0.3,0,0.6,0,0.9,0s0.6,0.1,0.9,0.1c1-0.2,2.1-0.4,3.1-0.8c0.8-0.3,1.6-0.8,2.3-1.3
	c0.6-0.4,1.1-1,1.5-1.6c0.3-0.6,0.5-1.2,0.5-1.9c0.1-1-0.5-2-1.3-2.6C108.7,3,107.4,2.7,106,2.8z"/>
<path class="st0" d="M117.5,27.4c-1.3-0.1-2.4-0.7-3.2-1.8c-0.8-1.2-1.3-2.6-1.2-4c0-1,0.1-2,0.4-2.9c0.3-1,0.7-2,1.2-3
	s1.1-1.9,1.8-2.7c0.7-0.8,1.4-1.6,2.3-2.2c1-0.9,2.3-1.4,3.7-1.5c1,0.6,1.7,1.5,2.2,2.5h0.3h0.3c1.3,0,1.9,1.1,1.9,3.3
	c0,1.4-0.2,2.9-0.7,4.2s-1.1,2.5-2,3.6s-1.9,2-3.1,2.8C120.3,26.5,118.9,27.1,117.5,27.4z M119.3,16.2c-0.4,0.6-0.8,1.2-1.1,1.8
	c-0.3,0.6-0.7,1.3-0.9,1.9c-0.2,0.6-0.4,1.2-0.6,1.9c-0.1,0.5-0.2,1.1-0.2,1.6c0,0.6,0.1,1.1,0.3,1.6c0.2,0.5,0.4,0.8,0.6,0.9
	c1.1-0.2,2.1-0.7,2.9-1.3c0.9-0.7,1.7-1.5,2.3-2.4c0.7-1,1.2-2.1,1.5-3.3c0.4-1.3,0.6-2.6,0.6-3.9c0-0.5,0-1-0.1-1.5
	c-0.1-0.3-0.2-0.6-0.3-0.9c-1,0.3-2,0.8-2.8,1.5C120.7,14.7,120,15.4,119.3,16.2z"/>
<path class="st0" d="M133.1,27.4c-1.3-0.1-2.4-0.7-3.2-1.8c-0.9-1.2-1.3-2.6-1.2-4c0-1,0.1-2,0.4-2.9c0.3-1,0.7-2,1.2-3
	s1.1-1.9,1.8-2.7s1.4-1.6,2.3-2.2c1-0.9,2.3-1.4,3.6-1.5c1,0.6,1.7,1.5,2.2,2.5h0.3h0.3c1.2,0,1.9,1.1,1.9,3.3
	c0,1.4-0.2,2.9-0.7,4.2s-1.1,2.5-2,3.6s-1.9,2-3.1,2.8C135.9,26.5,134.5,27.1,133.1,27.4z M135,16.2c-0.4,0.6-0.8,1.2-1.1,1.8
	c-0.3,0.6-0.7,1.3-0.9,1.9s-0.4,1.2-0.6,1.9c-0.1,0.5-0.2,1.1-0.2,1.6c0,0.6,0.1,1.1,0.3,1.6s0.4,0.8,0.6,0.9c1.1-0.2,2-0.7,2.9-1.3
	c0.9-0.7,1.7-1.5,2.3-2.4c0.7-1,1.2-2.1,1.5-3.3c0.4-1.3,0.6-2.6,0.6-3.9c0-0.5,0-1-0.1-1.5c-0.1-0.3-0.2-0.6-0.4-0.9
	c-1,0.3-2,0.8-2.8,1.5C136.3,14.7,135.6,15.4,135,16.2z"/>
<path class="st0" d="M146.3,12.6c-0.2-0.3-0.3-0.6-0.3-0.9c-0.1-0.4-0.1-0.8-0.1-1.2c0.6,0.1,1.2,0.1,1.8,0.1h1.6
	c0.4-0.7,0.7-1.4,1.1-2.1s0.8-1.3,1.2-1.9c0.3-0.5,0.7-1,1.1-1.5c0.2-0.3,0.5-0.6,0.8-0.8c0.3,0,0.6,0,0.9,0.1
	c0.4,0.1,0.7,0.2,1.1,0.3s0.7,0.3,1,0.4c0.2,0.1,0.5,0.2,0.6,0.4c-0.7,0.9-1.3,1.7-1.8,2.5s-1.1,1.6-1.6,2.6h1.4c0.5,0,1,0,1.5-0.1
	c0.1,0.1,0.2,0.3,0.3,0.4c0.1,0.2,0.1,0.4,0.1,0.5c-1.4,0.5-2.8,0.7-4.2,0.7c-0.6,1.1-1.1,2.3-1.6,3.4s-0.9,2.2-1.2,3.2
	s-0.5,1.9-0.7,2.9c-0.2,0.8-0.3,1.7-0.3,2.5c0,1,0.4,1.6,1.2,1.7c0.7-0.1,1.4-0.3,2-0.5s1.2-0.6,1.7-1c0.1,0.2,0.2,0.3,0.2,0.5
	c-0.2,0.3-0.5,0.5-0.7,0.7c-0.4,0.3-0.7,0.6-1.1,0.8c-0.4,0.3-0.8,0.5-1.2,0.7c-0.3,0.1-0.6,0.2-0.9,0.3c-0.6,0-1.2-0.1-1.8-0.3
	c-0.6-0.2-1.1-0.5-1.6-0.9c-0.5-0.3-0.9-0.7-1.2-1.2c-0.3-0.4-0.4-0.8-0.5-1.3c0-0.7,0.1-1.4,0.2-2.1c0.1-0.9,0.4-1.8,0.6-2.8
	s0.6-2.1,1-3.2s0.8-2.2,1.2-3.3L146.3,12.6z"/>
<path class="st0" d="M168.9,12c0,0.5-0.1,0.9-0.2,1.4c-0.1,0.4-0.3,0.9-0.5,1.3c-0.2,0.4-0.4,0.7-0.6,1c-0.1,0.2-0.4,0.4-0.6,0.4
	c-0.3,0-0.4-0.2-0.5-0.5c0-0.1,0-0.2,0.1-0.3s0.1-0.3,0.2-0.5s0.1-0.4,0.2-0.6c0.1-0.2,0.1-0.3,0.1-0.5c0-0.3-0.1-0.6-0.2-0.8
	c-0.1-0.2-0.4-0.3-0.6-0.3c-0.9,0-1.7,0.6-2.2,1.8c-0.6,1.7-0.8,3.4-0.7,5.2c0,0.1,0,0.3,0,0.4h2.5c0,0.1,0,0.2,0,0.3
	c0,0.2,0,0.3-0.1,0.5l-1.3,0.3c-0.2,0.1-0.5,0.1-0.7,0.2c-0.1,0-0.2,0.1-0.3,0.2c0,0.1-0.1,0.2-0.1,0.3c0,0.2,0,0.4,0,0.6
	s0,0.4,0,0.7c0.1,1.7-0.5,3.4-1.6,4.8c-1.2,1.2-2.8,2-4.5,2.1c-0.3,0-0.7-0.1-1-0.3c-0.4-0.2-0.7-0.4-1-0.6
	c-0.3-0.3-0.6-0.5-0.8-0.9c-0.2-0.3-0.4-0.6-0.5-1c0-0.9,0.2-1.8,0.6-2.6c0.4-0.8,0.9-1.5,1.5-2.2c0.7-0.6,1.4-1.2,2.3-1.5
	c0.9-0.4,1.9-0.6,2.9-0.6c0-0.6-0.1-1.2-0.2-1.7c-0.1-0.6-0.2-1.1-0.4-1.6s-0.3-1.1-0.4-1.6c-0.1-0.5-0.2-1-0.2-1.5
	c0-0.7,0.1-1.3,0.4-1.9c0.2-0.6,0.6-1.2,1-1.7s0.9-1,1.5-1.4c0.5-0.4,1.1-0.6,1.8-0.8c0.4,0.1,0.7,0.4,1,0.6
	c0.5,0.4,0.9,0.7,1.3,1.1c0.4,0.4,0.8,0.8,1.1,1.3C168.5,11.2,168.7,11.6,168.9,12z M157.2,28.1c0.6-0.2,1.1-0.6,1.6-1
	c1-0.9,1.8-2,2.2-3.3c0.2-0.6,0.3-1.2,0.3-1.9c-0.6,0.1-1.1,0.3-1.6,0.7c-1.1,0.7-2.1,1.7-2.8,2.9c-0.3,0.4-0.5,0.9-0.5,1.4
	C156.5,27.4,156.8,27.8,157.2,28.1z"/>
<path class="st0" d="M171,12.6c-0.2-0.3-0.3-0.6-0.3-0.9c-0.1-0.4-0.1-0.8-0.1-1.2c0.6,0.1,1.2,0.1,1.8,0.1h1.6
	c0.4-0.7,0.7-1.4,1.1-2.1s0.8-1.3,1.2-1.9c0.3-0.5,0.7-1,1.1-1.5c0.2-0.3,0.5-0.6,0.8-0.8c0.3,0,0.6,0,0.9,0.1
	c0.4,0.1,0.7,0.2,1.1,0.3s0.7,0.3,1,0.4c0.2,0.1,0.5,0.2,0.6,0.4c-0.7,0.9-1.3,1.7-1.8,2.5s-1.1,1.6-1.6,2.6h1.4c0.5,0,1,0,1.5-0.1
	c0.1,0.1,0.2,0.3,0.3,0.4c0.1,0.2,0.1,0.4,0.1,0.5c-1.4,0.5-2.8,0.7-4.2,0.7c-0.6,1.1-1.1,2.3-1.6,3.4s-0.9,2.2-1.2,3.2
	s-0.5,1.9-0.7,2.9c-0.2,0.8-0.3,1.7-0.3,2.5c0,1,0.4,1.6,1.2,1.7c0.7-0.1,1.4-0.3,2-0.5s1.2-0.6,1.7-1c0.1,0.2,0.2,0.3,0.2,0.5
	c-0.2,0.3-0.5,0.5-0.7,0.7c-0.4,0.3-0.7,0.6-1.1,0.8c-0.4,0.3-0.8,0.5-1.2,0.7c-0.3,0.1-0.6,0.2-0.9,0.3c-0.6,0-1.2-0.1-1.8-0.3
	c-0.6-0.2-1.1-0.5-1.6-0.9c-0.5-0.3-0.9-0.7-1.2-1.2c-0.3-0.4-0.4-0.8-0.5-1.3c0-0.7,0.1-1.4,0.2-2.1c0.1-0.9,0.4-1.8,0.6-2.8
	s0.6-2.1,1-3.2s0.8-2.2,1.2-3.3L171,12.6z"/>
<path class="st1" d="M180.6,25.4c0.1-0.7,0.3-1.6,0.6-2.7s0.6-2.3,1-3.6s0.8-2.5,1.3-3.8s0.9-2.4,1.3-3.4c0.2-0.6,0.5-1.2,0.8-1.7
	c0.2-0.4,0.5-0.7,0.8-1c0.3,0.1,0.7,0.1,1,0.2c0.3,0.1,0.7,0.3,1,0.4c0.3,0.2,0.6,0.3,0.9,0.5c0.2,0.1,0.4,0.3,0.6,0.5
	c-0.7,0.8-1.2,1.7-1.7,2.6c-0.5,1.2-1,2.4-1.4,3.6c1.3-1.1,2.4-2.2,3.4-3.3s1.9-2.2,2.8-3.5c0.2-0.1,0.5-0.2,0.7-0.2
	c0.3,0,0.6,0.1,0.9,0.2c0.3,0.1,0.5,0.2,0.6,0.4c-0.4,1.1-0.6,2.2-0.6,3.4c0,0.8,0.1,1.6,0.5,2.3c-0.1,0.3-0.3,0.6-0.5,0.8
	c-0.3,0.4-0.6,0.8-1,1.1c-1.3-0.7-2.3-1.9-2.8-3.2c-1,0.7-1.9,1.5-2.8,2.3c-0.8,0.7-1.4,1.6-2,2.5c-0.6,1-1.1,2-1.4,3.1
	c-0.4,1.2-0.8,2.6-1.1,4.2c-0.3,0-0.5-0.1-0.8-0.2c-0.6-0.3-1.2-0.6-1.7-1.1C180.8,25.9,180.7,25.7,180.6,25.4z"/>
<path class="st0" d="M207.9,11.8c0.3,0,0.6,0,0.8,0.1c0.3,0.1,0.6,0.2,0.9,0.3c0.2,0.1,0.4,0.2,0.6,0.4c0.2,0.1,0.3,0.3,0.3,0.4
	c-0.5,1-0.9,2-1.3,3s-0.7,2-1,2.9c-0.3,0.8-0.5,1.7-0.6,2.6c-0.1,0.7-0.2,1.4-0.2,2.1c0,0.6,0.1,1.1,0.2,1.6
	c0.1,0.4,0.4,0.7,0.7,0.9c-0.3,0.2-0.7,0.4-1.1,0.5c-0.4,0.1-0.8,0.2-1.2,0.2c-1.3,0-1.9-0.9-1.9-2.6c0.1-1.9,0.6-3.8,1.3-5.5
	c-0.5,1-1,2-1.6,3c-0.6,0.9-1.2,1.7-1.9,2.5c-0.6,0.7-1.2,1.3-2,1.9c-0.5,0.4-1.1,0.7-1.8,0.8c-0.9,0-1.7-0.5-2.1-1.2
	c-0.6-0.9-0.9-1.9-0.8-3c0-1.4,0.3-2.9,0.9-4.2c0.6-1.4,1.3-2.8,2.2-4.1c0.8-1.2,1.8-2.2,2.9-3.1c0.8-0.8,1.9-1.2,3-1.3
	c0.3,0.1,0.6,0.2,0.8,0.4c0.3,0.2,0.6,0.5,0.9,0.7c0.3,0.3,0.5,0.6,0.7,0.9c0.2,0.2,0.3,0.5,0.3,0.8c-1.1,0.2-2.1,0.6-2.9,1.3
	c-1,0.8-2,1.8-2.7,2.8c-0.8,1.1-1.5,2.3-2,3.5c-0.5,1.1-0.8,2.3-0.8,3.5c0,0.4,0.2,0.7,0.5,0.8c0.9-0.3,1.8-0.9,2.4-1.8
	c1.2-1.5,2.3-3.1,3.3-4.8l0.8-1.4c0.3-0.5,0.6-1.1,0.9-1.6l0.9-1.7C207.3,12.9,207.6,12.4,207.9,11.8z"/>
<path class="st0" d="M209.7,37.8c-0.3-0.1-0.5-0.4-0.6-1.1c-0.1-0.4-0.2-0.7-0.2-1.1c0-0.4-0.1-0.9-0.1-1.5c0-0.7,0.1-1.3,0.2-2
	c0.2-0.9,0.4-1.8,0.7-2.9s0.6-2.3,1.1-3.5s0.9-2.5,1.4-3.8c0.6-1.6,1.2-3,1.7-4.2s0.9-2.2,1.2-3.1s0.6-1.6,0.8-2.2s0.4-1,0.5-1.5
	c0.1-0.3,0.3-0.7,0.4-1c0.2-0.4,0.4-0.8,0.7-1.2c0.2-0.4,0.5-0.8,0.8-1.2c0.2-0.3,0.4-0.6,0.7-0.8c0.8,0.1,1.6,0.3,2.3,0.6
	c0.5,0.2,1,0.5,1.4,0.9c-0.4,0.4-0.8,0.9-1.1,1.4c-0.5,0.7-0.9,1.4-1.2,2.1c-0.4,0.8-0.8,1.6-1.1,2.4c-0.3,0.7-0.5,1.4-0.7,2.1
	c0.3-0.5,0.6-0.9,0.9-1.3c0.4-0.5,1-1.1,1.7-2c0.7-0.8,1.6-1.5,2.5-2.1c0.6-0.4,1.3-0.7,2-0.7c0.8,0,1.6,0.2,2.2,0.7
	c0.6,0.5,0.9,1.2,0.9,1.9c0,1.7-0.3,3.4-0.9,5.1c-0.5,1.6-1.4,3.2-2.4,4.5c-0.4,0.5-0.9,1-1.4,1.4c-0.5,0.5-1.1,0.9-1.7,1.2
	c-0.5,0.3-1.1,0.6-1.7,0.9c-0.5,0.2-1,0.3-1.5,0.3c-0.4,0-0.8-0.1-1.1-0.3c-0.3-0.1-0.5-0.4-0.6-0.7c1-0.6,1.9-1.4,2.7-2.3
	c0.9-1,1.7-2.1,2.4-3.3c0.8-1.3,1.4-2.7,1.9-4.1s1-2.9,1.3-4.5c-0.9,0.4-1.7,1-2.4,1.5c-0.8,0.6-1.5,1.4-2.2,2.2
	c-0.9,1-1.5,1.9-2,2.5s-0.9,1.2-1.2,1.6s-0.6,0.8-0.8,1.2c-0.2,0.4-0.4,0.9-0.6,1.4c-0.3,0.8-0.7,1.8-1.1,3s-0.9,2.6-1.4,4.2
	s-0.9,3.2-1.4,4.9s-0.9,3.5-1.3,5.2c-0.3-0.1-0.5-0.3-0.7-0.6c-0.2-0.2-0.3-0.4-0.4-0.5C210,38,209.9,37.9,209.7,37.8z"/>
<text transform="matrix(1 0 0 1 -264 -143)" class="st3" style="display:none;fill:none;stroke:#000000;stroke-miterlimit:10;enable-background:new    ; font-size:48px;">Sactl</text>
<text transform="matrix(1 0 0 1 -167 -164)" style="display:none;enable-background:new    ; font-family:'ArialMT'; font-size:12px;">Lorem ipsum</text>
<text transform="matrix(1 0 0 1 4 31.9854)" class="st2 st3 st4">PumaEventos</text>
</svg>
